<mxfile host="app.diagrams.net" modified="2021-11-17T13:13:57.561Z" agent="5.0 (Windows)" etag="RTRsAUqpeedpiDV7ThQy" version="15.7.4" type="github">
  <diagram id="q9Ps-RnnYnzRldawcZBS" name="Page-1">
    <mxGraphModel dx="782" dy="420" grid="1" gridSize="10" guides="1" tooltips="1" connect="1" arrows="1" fold="1" page="1" pageScale="1" pageWidth="850" pageHeight="1100" math="0" shadow="0">
      <root>
        <mxCell id="0" />
        <mxCell id="1" parent="0" />
        <mxCell id="cCv3r7rXpcqw24vT97UZ-61" value="New Frame Recieved" style="edgeStyle=orthogonalEdgeStyle;rounded=0;orthogonalLoop=1;jettySize=auto;html=1;entryX=1;entryY=0.75;entryDx=0;entryDy=0;" parent="1" source="1H7v9yOLT2mySPb2tCpm-1" target="cCv3r7rXpcqw24vT97UZ-55" edge="1">
          <mxGeometry x="-0.7097" relative="1" as="geometry">
            <mxPoint as="offset" />
            <Array as="points">
              <mxPoint x="640" y="130" />
              <mxPoint x="640" y="605" />
            </Array>
          </mxGeometry>
        </mxCell>
        <mxCell id="1H7v9yOLT2mySPb2tCpm-1" value="SPI Shift register" style="rounded=0;whiteSpace=wrap;html=1;" parent="1" vertex="1">
          <mxGeometry x="140" y="120" width="280" height="20" as="geometry" />
        </mxCell>
        <mxCell id="1H7v9yOLT2mySPb2tCpm-2" value="Mosi" style="endArrow=classic;html=1;rounded=0;" parent="1" edge="1">
          <mxGeometry width="50" height="50" relative="1" as="geometry">
            <mxPoint x="80" y="130" as="sourcePoint" />
            <mxPoint x="140" y="130" as="targetPoint" />
          </mxGeometry>
        </mxCell>
        <mxCell id="1H7v9yOLT2mySPb2tCpm-3" value="" style="endArrow=none;html=1;rounded=0;" parent="1" edge="1">
          <mxGeometry width="50" height="50" relative="1" as="geometry">
            <mxPoint x="80" y="130" as="sourcePoint" />
            <mxPoint x="80" y="40" as="targetPoint" />
          </mxGeometry>
        </mxCell>
        <mxCell id="1H7v9yOLT2mySPb2tCpm-4" value="SClk" style="endArrow=classic;html=1;rounded=0;" parent="1" edge="1">
          <mxGeometry width="50" height="50" relative="1" as="geometry">
            <mxPoint x="220" y="40" as="sourcePoint" />
            <mxPoint x="220" y="120" as="targetPoint" />
          </mxGeometry>
        </mxCell>
        <mxCell id="1H7v9yOLT2mySPb2tCpm-5" value="CS" style="endArrow=classic;html=1;rounded=0;entryX=0.136;entryY=-0.05;entryDx=0;entryDy=0;entryPerimeter=0;" parent="1" target="1H7v9yOLT2mySPb2tCpm-1" edge="1">
          <mxGeometry width="50" height="50" relative="1" as="geometry">
            <mxPoint x="178" y="40" as="sourcePoint" />
            <mxPoint x="320" y="250" as="targetPoint" />
          </mxGeometry>
        </mxCell>
        <mxCell id="1H7v9yOLT2mySPb2tCpm-7" value="Last recived frame" style="rounded=0;whiteSpace=wrap;html=1;" parent="1" vertex="1">
          <mxGeometry x="140" y="160" width="280" height="20" as="geometry" />
        </mxCell>
        <mxCell id="1H7v9yOLT2mySPb2tCpm-8" value="" style="endArrow=classic;html=1;rounded=0;exitX=0.5;exitY=1;exitDx=0;exitDy=0;entryX=0.5;entryY=0;entryDx=0;entryDy=0;" parent="1" source="1H7v9yOLT2mySPb2tCpm-1" target="1H7v9yOLT2mySPb2tCpm-7" edge="1">
          <mxGeometry width="50" height="50" relative="1" as="geometry">
            <mxPoint x="270" y="210" as="sourcePoint" />
            <mxPoint x="320" y="160" as="targetPoint" />
          </mxGeometry>
        </mxCell>
        <mxCell id="1H7v9yOLT2mySPb2tCpm-9" value="Rendering Frame" style="rounded=0;whiteSpace=wrap;html=1;" parent="1" vertex="1">
          <mxGeometry x="140" y="200" width="280" height="20" as="geometry" />
        </mxCell>
        <mxCell id="1H7v9yOLT2mySPb2tCpm-12" value="" style="endArrow=classic;html=1;rounded=0;exitX=0.5;exitY=1;exitDx=0;exitDy=0;entryX=0.5;entryY=0;entryDx=0;entryDy=0;" parent="1" source="1H7v9yOLT2mySPb2tCpm-7" target="1H7v9yOLT2mySPb2tCpm-9" edge="1">
          <mxGeometry width="50" height="50" relative="1" as="geometry">
            <mxPoint x="240" y="160" as="sourcePoint" />
            <mxPoint x="240" y="180" as="targetPoint" />
          </mxGeometry>
        </mxCell>
        <mxCell id="p4rGvyIHzH4OkrzjBhDH-16" style="edgeStyle=orthogonalEdgeStyle;rounded=0;jumpStyle=none;orthogonalLoop=1;jettySize=auto;html=1;entryX=-0.024;entryY=0.509;entryDx=0;entryDy=0;startArrow=none;startFill=0;endArrow=classic;endFill=1;entryPerimeter=0;" parent="1" source="1H7v9yOLT2mySPb2tCpm-13" target="p4rGvyIHzH4OkrzjBhDH-25" edge="1">
          <mxGeometry relative="1" as="geometry">
            <mxPoint x="190" y="390" as="targetPoint" />
            <Array as="points">
              <mxPoint x="170" y="390" />
            </Array>
          </mxGeometry>
        </mxCell>
        <mxCell id="p4rGvyIHzH4OkrzjBhDH-28" style="edgeStyle=orthogonalEdgeStyle;rounded=0;jumpStyle=none;orthogonalLoop=1;jettySize=auto;html=1;entryX=0;entryY=0.5;entryDx=0;entryDy=0;startArrow=none;startFill=0;endArrow=classic;endFill=1;" parent="1" source="1H7v9yOLT2mySPb2tCpm-13" target="p4rGvyIHzH4OkrzjBhDH-27" edge="1">
          <mxGeometry relative="1" as="geometry">
            <Array as="points">
              <mxPoint x="170" y="360" />
              <mxPoint x="260" y="360" />
              <mxPoint x="260" y="390" />
            </Array>
          </mxGeometry>
        </mxCell>
        <mxCell id="1H7v9yOLT2mySPb2tCpm-13" value="MVP" style="rounded=0;whiteSpace=wrap;html=1;" parent="1" vertex="1">
          <mxGeometry x="140" y="240" width="40" height="20" as="geometry" />
        </mxCell>
        <mxCell id="p4rGvyIHzH4OkrzjBhDH-11" style="edgeStyle=orthogonalEdgeStyle;rounded=0;jumpStyle=none;orthogonalLoop=1;jettySize=auto;html=1;entryX=0.5;entryY=0;entryDx=0;entryDy=0;startArrow=none;startFill=0;endArrow=classic;endFill=1;" parent="1" source="1H7v9yOLT2mySPb2tCpm-14" target="cCv3r7rXpcqw24vT97UZ-7" edge="1">
          <mxGeometry relative="1" as="geometry">
            <Array as="points">
              <mxPoint x="225" y="270" />
              <mxPoint x="225" y="270" />
            </Array>
          </mxGeometry>
        </mxCell>
        <mxCell id="p4rGvyIHzH4OkrzjBhDH-12" style="edgeStyle=orthogonalEdgeStyle;rounded=0;jumpStyle=none;orthogonalLoop=1;jettySize=auto;html=1;entryX=0.5;entryY=0;entryDx=0;entryDy=0;startArrow=none;startFill=0;endArrow=classic;endFill=1;" parent="1" source="1H7v9yOLT2mySPb2tCpm-14" target="cCv3r7rXpcqw24vT97UZ-8" edge="1">
          <mxGeometry relative="1" as="geometry">
            <Array as="points">
              <mxPoint x="305" y="270" />
              <mxPoint x="305" y="270" />
            </Array>
          </mxGeometry>
        </mxCell>
        <mxCell id="1H7v9yOLT2mySPb2tCpm-14" value="Vertex Array" style="rounded=0;whiteSpace=wrap;html=1;" parent="1" vertex="1">
          <mxGeometry x="190" y="240" width="150" height="20" as="geometry" />
        </mxCell>
        <mxCell id="cCv3r7rXpcqw24vT97UZ-20" value="Point1 Index" style="edgeStyle=orthogonalEdgeStyle;rounded=0;orthogonalLoop=1;jettySize=auto;html=1;entryX=1;entryY=0.5;entryDx=0;entryDy=0;jumpStyle=none;" parent="1" source="1H7v9yOLT2mySPb2tCpm-15" target="cCv3r7rXpcqw24vT97UZ-7" edge="1">
          <mxGeometry x="-0.6571" y="-10" relative="1" as="geometry">
            <Array as="points">
              <mxPoint x="360" y="280" />
              <mxPoint x="270" y="280" />
              <mxPoint x="270" y="310" />
            </Array>
            <mxPoint as="offset" />
          </mxGeometry>
        </mxCell>
        <mxCell id="cCv3r7rXpcqw24vT97UZ-21" value="Point2 Index" style="edgeStyle=orthogonalEdgeStyle;rounded=0;orthogonalLoop=1;jettySize=auto;html=1;entryX=1;entryY=0.5;entryDx=0;entryDy=0;" parent="1" source="1H7v9yOLT2mySPb2tCpm-15" target="cCv3r7rXpcqw24vT97UZ-8" edge="1">
          <mxGeometry x="-0.36" relative="1" as="geometry">
            <Array as="points">
              <mxPoint x="385" y="310" />
            </Array>
            <mxPoint as="offset" />
          </mxGeometry>
        </mxCell>
        <mxCell id="ZKv37jcsLmG-ChblOMZN-1" value="Color" style="edgeStyle=orthogonalEdgeStyle;rounded=0;orthogonalLoop=1;jettySize=auto;html=1;entryX=1;entryY=0;entryDx=0;entryDy=0;" parent="1" source="1H7v9yOLT2mySPb2tCpm-15" target="cCv3r7rXpcqw24vT97UZ-17" edge="1">
          <mxGeometry x="-0.5152" relative="1" as="geometry">
            <Array as="points">
              <mxPoint x="410" y="500" />
            </Array>
            <mxPoint as="offset" />
          </mxGeometry>
        </mxCell>
        <mxCell id="1H7v9yOLT2mySPb2tCpm-15" value="Line Array" style="rounded=0;whiteSpace=wrap;html=1;" parent="1" vertex="1">
          <mxGeometry x="350" y="240" width="70" height="20" as="geometry" />
        </mxCell>
        <mxCell id="1H7v9yOLT2mySPb2tCpm-16" value="" style="endArrow=classic;html=1;rounded=0;entryX=0.5;entryY=0;entryDx=0;entryDy=0;exitX=0.071;exitY=1;exitDx=0;exitDy=0;exitPerimeter=0;" parent="1" source="1H7v9yOLT2mySPb2tCpm-9" target="1H7v9yOLT2mySPb2tCpm-13" edge="1">
          <mxGeometry width="50" height="50" relative="1" as="geometry">
            <mxPoint x="220" y="320" as="sourcePoint" />
            <mxPoint x="400" y="210" as="targetPoint" />
          </mxGeometry>
        </mxCell>
        <mxCell id="1H7v9yOLT2mySPb2tCpm-17" value="" style="endArrow=classic;html=1;rounded=0;entryX=0.5;entryY=0;entryDx=0;entryDy=0;exitX=0.071;exitY=1;exitDx=0;exitDy=0;exitPerimeter=0;" parent="1" edge="1">
          <mxGeometry width="50" height="50" relative="1" as="geometry">
            <mxPoint x="260" y="220" as="sourcePoint" />
            <mxPoint x="260.12" y="240" as="targetPoint" />
          </mxGeometry>
        </mxCell>
        <mxCell id="1H7v9yOLT2mySPb2tCpm-18" value="" style="endArrow=classic;html=1;rounded=0;entryX=0.5;entryY=0;entryDx=0;entryDy=0;exitX=0.071;exitY=1;exitDx=0;exitDy=0;exitPerimeter=0;" parent="1" target="1H7v9yOLT2mySPb2tCpm-15" edge="1">
          <mxGeometry width="50" height="50" relative="1" as="geometry">
            <mxPoint x="384.9" y="220" as="sourcePoint" />
            <mxPoint x="385.02" y="240" as="targetPoint" />
          </mxGeometry>
        </mxCell>
        <mxCell id="p4rGvyIHzH4OkrzjBhDH-13" style="edgeStyle=orthogonalEdgeStyle;rounded=0;jumpStyle=none;orthogonalLoop=1;jettySize=auto;html=1;startArrow=none;startFill=0;endArrow=classic;endFill=1;" parent="1" source="cCv3r7rXpcqw24vT97UZ-7" edge="1">
          <mxGeometry relative="1" as="geometry">
            <mxPoint x="225" y="370" as="targetPoint" />
          </mxGeometry>
        </mxCell>
        <mxCell id="cCv3r7rXpcqw24vT97UZ-7" value="Point 1 Mux" style="whiteSpace=wrap;html=1;aspect=fixed;" parent="1" vertex="1">
          <mxGeometry x="205" y="290" width="40" height="40" as="geometry" />
        </mxCell>
        <mxCell id="p4rGvyIHzH4OkrzjBhDH-14" style="edgeStyle=orthogonalEdgeStyle;rounded=0;jumpStyle=none;orthogonalLoop=1;jettySize=auto;html=1;entryX=0.767;entryY=0;entryDx=0;entryDy=0;entryPerimeter=0;startArrow=none;startFill=0;endArrow=classic;endFill=1;" parent="1" source="cCv3r7rXpcqw24vT97UZ-8" edge="1">
          <mxGeometry relative="1" as="geometry">
            <mxPoint x="305.04999999999995" y="370" as="targetPoint" />
          </mxGeometry>
        </mxCell>
        <mxCell id="cCv3r7rXpcqw24vT97UZ-8" value="&lt;div&gt;Point 2&lt;/div&gt;&lt;div&gt; Mux&lt;/div&gt;" style="whiteSpace=wrap;html=1;aspect=fixed;" parent="1" vertex="1">
          <mxGeometry x="285" y="290" width="40" height="40" as="geometry" />
        </mxCell>
        <mxCell id="cCv3r7rXpcqw24vT97UZ-35" value="Address" style="edgeStyle=orthogonalEdgeStyle;rounded=0;orthogonalLoop=1;jettySize=auto;html=1;entryX=0.169;entryY=-0.022;entryDx=0;entryDy=0;entryPerimeter=0;" parent="1" source="cCv3r7rXpcqw24vT97UZ-17" target="cCv3r7rXpcqw24vT97UZ-34" edge="1">
          <mxGeometry relative="1" as="geometry">
            <Array as="points">
              <mxPoint x="220" y="600" />
            </Array>
            <mxPoint x="220" y="630" as="targetPoint" />
          </mxGeometry>
        </mxCell>
        <mxCell id="cCv3r7rXpcqw24vT97UZ-38" value="Write&lt;br&gt;Enable" style="edgeStyle=orthogonalEdgeStyle;rounded=0;orthogonalLoop=1;jettySize=auto;html=1;entryX=0.836;entryY=-0.028;entryDx=0;entryDy=0;entryPerimeter=0;" parent="1" source="cCv3r7rXpcqw24vT97UZ-17" target="cCv3r7rXpcqw24vT97UZ-34" edge="1">
          <mxGeometry x="0.0215" relative="1" as="geometry">
            <mxPoint x="300" y="630" as="targetPoint" />
            <Array as="points">
              <mxPoint x="300" y="600" />
            </Array>
            <mxPoint as="offset" />
          </mxGeometry>
        </mxCell>
        <mxCell id="cCv3r7rXpcqw24vT97UZ-58" value="Bussy" style="edgeStyle=orthogonalEdgeStyle;rounded=0;orthogonalLoop=1;jettySize=auto;html=1;entryX=0.5;entryY=0;entryDx=0;entryDy=0;" parent="1" source="cCv3r7rXpcqw24vT97UZ-17" target="cCv3r7rXpcqw24vT97UZ-55" edge="1">
          <mxGeometry relative="1" as="geometry">
            <mxPoint x="485" y="530" as="targetPoint" />
          </mxGeometry>
        </mxCell>
        <mxCell id="6mL-w4yi78JhoUH-RMGF-1" value="Value" style="edgeStyle=orthogonalEdgeStyle;rounded=0;orthogonalLoop=1;jettySize=auto;html=1;entryX=0.5;entryY=0;entryDx=0;entryDy=0;" parent="1" source="cCv3r7rXpcqw24vT97UZ-17" target="cCv3r7rXpcqw24vT97UZ-34" edge="1">
          <mxGeometry relative="1" as="geometry">
            <Array as="points">
              <mxPoint x="260" y="580" />
              <mxPoint x="260" y="580" />
            </Array>
          </mxGeometry>
        </mxCell>
        <mxCell id="cCv3r7rXpcqw24vT97UZ-17" value="Bresenham module" style="rounded=0;whiteSpace=wrap;html=1;" parent="1" vertex="1">
          <mxGeometry x="200" y="500" width="120" height="60" as="geometry" />
        </mxCell>
        <mxCell id="cCv3r7rXpcqw24vT97UZ-34" value="FB" style="rounded=0;whiteSpace=wrap;html=1;" parent="1" vertex="1">
          <mxGeometry x="200" y="640" width="120" height="60" as="geometry" />
        </mxCell>
        <mxCell id="cCv3r7rXpcqw24vT97UZ-63" value="Hsync" style="edgeStyle=orthogonalEdgeStyle;rounded=0;orthogonalLoop=1;jettySize=auto;html=1;" parent="1" source="cCv3r7rXpcqw24vT97UZ-52" edge="1">
          <mxGeometry relative="1" as="geometry">
            <mxPoint x="229.32999999999998" y="870" as="targetPoint" />
            <Array as="points">
              <mxPoint x="229.32999999999998" y="820" />
              <mxPoint x="229.32999999999998" y="820" />
            </Array>
          </mxGeometry>
        </mxCell>
        <mxCell id="cCv3r7rXpcqw24vT97UZ-64" value="Data" style="edgeStyle=orthogonalEdgeStyle;rounded=0;orthogonalLoop=1;jettySize=auto;html=1;" parent="1" source="cCv3r7rXpcqw24vT97UZ-52" edge="1">
          <mxGeometry relative="1" as="geometry">
            <mxPoint x="259.33" y="870" as="targetPoint" />
          </mxGeometry>
        </mxCell>
        <mxCell id="cCv3r7rXpcqw24vT97UZ-65" value="Data" style="edgeStyle=orthogonalEdgeStyle;rounded=0;orthogonalLoop=1;jettySize=auto;html=1;" parent="1" source="cCv3r7rXpcqw24vT97UZ-52" edge="1">
          <mxGeometry relative="1" as="geometry">
            <mxPoint x="289.33" y="870" as="targetPoint" />
            <Array as="points">
              <mxPoint x="289.33" y="820" />
              <mxPoint x="289.33" y="820" />
            </Array>
          </mxGeometry>
        </mxCell>
        <mxCell id="y5_JxzXq5zQG_3taMquB-1" value="In Blanking" style="edgeStyle=orthogonalEdgeStyle;rounded=0;orthogonalLoop=1;jettySize=auto;html=1;entryX=0.5;entryY=1;entryDx=0;entryDy=0;" edge="1" parent="1" source="cCv3r7rXpcqw24vT97UZ-52" target="cCv3r7rXpcqw24vT97UZ-55">
          <mxGeometry x="0.8313" relative="1" as="geometry">
            <mxPoint as="offset" />
          </mxGeometry>
        </mxCell>
        <mxCell id="cCv3r7rXpcqw24vT97UZ-52" value="VGA DAC" style="whiteSpace=wrap;html=1;aspect=fixed;" parent="1" vertex="1">
          <mxGeometry x="219.32999999999998" y="750" width="80" height="80" as="geometry" />
        </mxCell>
        <mxCell id="cCv3r7rXpcqw24vT97UZ-57" value="Start Line" style="edgeStyle=orthogonalEdgeStyle;rounded=0;orthogonalLoop=1;jettySize=auto;html=1;entryX=1;entryY=0.75;entryDx=0;entryDy=0;" parent="1" source="cCv3r7rXpcqw24vT97UZ-55" target="cCv3r7rXpcqw24vT97UZ-17" edge="1">
          <mxGeometry relative="1" as="geometry">
            <Array as="points">
              <mxPoint x="450" y="545" />
            </Array>
          </mxGeometry>
        </mxCell>
        <mxCell id="cCv3r7rXpcqw24vT97UZ-60" value="Line num" style="edgeStyle=orthogonalEdgeStyle;rounded=0;orthogonalLoop=1;jettySize=auto;html=1;entryX=1;entryY=0.25;entryDx=0;entryDy=0;" parent="1" source="cCv3r7rXpcqw24vT97UZ-55" target="1H7v9yOLT2mySPb2tCpm-15" edge="1">
          <mxGeometry x="0.7101" relative="1" as="geometry">
            <Array as="points">
              <mxPoint x="580" y="570" />
              <mxPoint x="580" y="250" />
              <mxPoint x="420" y="250" />
            </Array>
            <mxPoint x="-1" as="offset" />
          </mxGeometry>
        </mxCell>
        <mxCell id="cCv3r7rXpcqw24vT97UZ-62" value="Load next Frame" style="edgeStyle=orthogonalEdgeStyle;rounded=0;orthogonalLoop=1;jettySize=auto;html=1;entryX=1;entryY=0.5;entryDx=0;entryDy=0;" parent="1" source="cCv3r7rXpcqw24vT97UZ-55" target="1H7v9yOLT2mySPb2tCpm-9" edge="1">
          <mxGeometry x="0.6981" relative="1" as="geometry">
            <Array as="points">
              <mxPoint x="610" y="590" />
              <mxPoint x="610" y="210" />
            </Array>
            <mxPoint as="offset" />
          </mxGeometry>
        </mxCell>
        <mxCell id="6mL-w4yi78JhoUH-RMGF-2" value="Clear" style="edgeStyle=orthogonalEdgeStyle;rounded=0;orthogonalLoop=1;jettySize=auto;html=1;entryX=1;entryY=0.25;entryDx=0;entryDy=0;" parent="1" source="cCv3r7rXpcqw24vT97UZ-55" target="cCv3r7rXpcqw24vT97UZ-17" edge="1">
          <mxGeometry relative="1" as="geometry">
            <Array as="points">
              <mxPoint x="510" y="515" />
            </Array>
          </mxGeometry>
        </mxCell>
        <mxCell id="cCv3r7rXpcqw24vT97UZ-55" value="&lt;div&gt;Render Frame&lt;/div&gt;&lt;div&gt; State Machine&lt;/div&gt;" style="rounded=0;whiteSpace=wrap;html=1;" parent="1" vertex="1">
          <mxGeometry x="425" y="560" width="120" height="60" as="geometry" />
        </mxCell>
        <mxCell id="p4rGvyIHzH4OkrzjBhDH-7" value="SelX" style="edgeStyle=orthogonalEdgeStyle;rounded=0;orthogonalLoop=1;jettySize=auto;html=1;entryX=0.5;entryY=0;entryDx=0;entryDy=0;" parent="1" edge="1">
          <mxGeometry relative="1" as="geometry">
            <mxPoint x="219.32999999999998" y="750" as="sourcePoint" />
            <mxPoint x="219.32999999999998" y="700" as="targetPoint" />
            <Array as="points">
              <mxPoint x="219.32999999999998" y="720" />
              <mxPoint x="219.32999999999998" y="720" />
            </Array>
          </mxGeometry>
        </mxCell>
        <mxCell id="p4rGvyIHzH4OkrzjBhDH-8" value="Data" style="edgeStyle=orthogonalEdgeStyle;rounded=0;orthogonalLoop=1;jettySize=auto;html=1;entryX=0.5;entryY=0;entryDx=0;entryDy=0;" parent="1" edge="1">
          <mxGeometry relative="1" as="geometry">
            <mxPoint x="299" y="700" as="sourcePoint" />
            <mxPoint x="299" y="750" as="targetPoint" />
          </mxGeometry>
        </mxCell>
        <mxCell id="p4rGvyIHzH4OkrzjBhDH-9" value="Read" style="edgeStyle=orthogonalEdgeStyle;rounded=0;orthogonalLoop=1;jettySize=auto;html=1;entryX=0.5;entryY=0;entryDx=0;entryDy=0;" parent="1" edge="1">
          <mxGeometry relative="1" as="geometry">
            <mxPoint x="273" y="750" as="sourcePoint" />
            <mxPoint x="273" y="700" as="targetPoint" />
          </mxGeometry>
        </mxCell>
        <mxCell id="p4rGvyIHzH4OkrzjBhDH-10" value="SelY" style="edgeStyle=orthogonalEdgeStyle;rounded=0;orthogonalLoop=1;jettySize=auto;html=1;entryX=0.5;entryY=0;entryDx=0;entryDy=0;" parent="1" edge="1">
          <mxGeometry relative="1" as="geometry">
            <mxPoint x="246.15999999999997" y="750" as="sourcePoint" />
            <mxPoint x="246.15999999999997" y="700" as="targetPoint" />
          </mxGeometry>
        </mxCell>
        <mxCell id="p4rGvyIHzH4OkrzjBhDH-21" style="edgeStyle=orthogonalEdgeStyle;rounded=0;jumpStyle=none;orthogonalLoop=1;jettySize=auto;html=1;startArrow=none;startFill=0;endArrow=classic;endFill=1;" parent="1" edge="1">
          <mxGeometry relative="1" as="geometry">
            <mxPoint x="304.8944827586207" y="410" as="sourcePoint" />
            <mxPoint x="304.8944827586207" y="430" as="targetPoint" />
            <Array as="points">
              <mxPoint x="304.86" y="420" />
              <mxPoint x="304.86" y="420" />
            </Array>
          </mxGeometry>
        </mxCell>
        <mxCell id="p4rGvyIHzH4OkrzjBhDH-22" style="edgeStyle=orthogonalEdgeStyle;rounded=0;jumpStyle=none;orthogonalLoop=1;jettySize=auto;html=1;startArrow=none;startFill=0;endArrow=classic;endFill=1;" parent="1" edge="1">
          <mxGeometry relative="1" as="geometry">
            <mxPoint x="224.8944827586207" y="410" as="sourcePoint" />
            <mxPoint x="224.8944827586207" y="430" as="targetPoint" />
            <Array as="points">
              <mxPoint x="224.86" y="420" />
              <mxPoint x="224.86" y="420" />
            </Array>
          </mxGeometry>
        </mxCell>
        <mxCell id="p4rGvyIHzH4OkrzjBhDH-23" style="edgeStyle=orthogonalEdgeStyle;rounded=0;jumpStyle=none;orthogonalLoop=1;jettySize=auto;html=1;startArrow=none;startFill=0;endArrow=classic;endFill=1;" parent="1" edge="1">
          <mxGeometry relative="1" as="geometry">
            <mxPoint x="224.7244827586207" y="480" as="sourcePoint" />
            <mxPoint x="224.7244827586207" y="500" as="targetPoint" />
            <Array as="points">
              <mxPoint x="224.69" y="490" />
              <mxPoint x="224.69" y="490" />
            </Array>
          </mxGeometry>
        </mxCell>
        <mxCell id="p4rGvyIHzH4OkrzjBhDH-24" style="edgeStyle=orthogonalEdgeStyle;rounded=0;jumpStyle=none;orthogonalLoop=1;jettySize=auto;html=1;startArrow=none;startFill=0;endArrow=classic;endFill=1;" parent="1" edge="1">
          <mxGeometry relative="1" as="geometry">
            <mxPoint x="304.7244827586207" y="480" as="sourcePoint" />
            <mxPoint x="304.7244827586207" y="500" as="targetPoint" />
            <Array as="points">
              <mxPoint x="304.69" y="490" />
              <mxPoint x="304.69" y="490" />
            </Array>
          </mxGeometry>
        </mxCell>
        <mxCell id="p4rGvyIHzH4OkrzjBhDH-25" value="Vector x Matrix" style="rounded=0;whiteSpace=wrap;html=1;" parent="1" vertex="1">
          <mxGeometry x="195" y="370" width="60" height="40" as="geometry" />
        </mxCell>
        <mxCell id="p4rGvyIHzH4OkrzjBhDH-27" value="Vector x Matrix" style="rounded=0;whiteSpace=wrap;html=1;" parent="1" vertex="1">
          <mxGeometry x="275" y="370" width="60" height="40" as="geometry" />
        </mxCell>
        <mxCell id="p4rGvyIHzH4OkrzjBhDH-30" value="w-norm &amp;amp; screenspace transform" style="rounded=0;whiteSpace=wrap;html=1;" parent="1" vertex="1">
          <mxGeometry x="187.5" y="430" width="75" height="50" as="geometry" />
        </mxCell>
        <mxCell id="p4rGvyIHzH4OkrzjBhDH-31" value="w-norm &amp;amp; screenspace transform" style="rounded=0;whiteSpace=wrap;html=1;" parent="1" vertex="1">
          <mxGeometry x="267.5" y="430" width="75" height="50" as="geometry" />
        </mxCell>
      </root>
    </mxGraphModel>
  </diagram>
</mxfile>
